REM DIRINDEX 1\2,1\3,1\4,1\5
REM DIRNAME "folder01","folder02","folder03","folder04","folder05"
TITLE ""
FILE "1Q_t_1268-1277.mp3" MP3
  TRACK 01 AUDIO
    TITLE "0:"
    INDEX 01 00:00:00
  TRACK 02 AUDIO
    TITLE "3:cjc172_4775"
    INDEX 01 00:00:16
  TRACK 03 AUDIO
    TITLE "0:"
    INDEX 01 00:01:22
  TRACK 04 AUDIO
    TITLE "4:cjc172_4776"
    INDEX 01 00:01:27
  TRACK 05 AUDIO
    TITLE "0:"
    INDEX 01 00:03:52
  TRACK 06 AUDIO
    TITLE "5:cjc172_4777"
    INDEX 01 00:03:60
  TRACK 07 AUDIO
    TITLE "0:"
    INDEX 01 00:09:54
  TRACK 08 AUDIO
    TITLE "3:cjc172_4778"
    INDEX 01 00:10:26
  TRACK 09 AUDIO
    TITLE "0:"
    INDEX 01 00:11:47
  TRACK 10 AUDIO
    TITLE "4:cjc172_4779"
    INDEX 01 00:11:55
  TRACK 11 AUDIO
    TITLE "0:"
    INDEX 01 00:14:40
  TRACK 12 AUDIO
    TITLE "5:cjc172_4780"
    INDEX 01 00:14:46
  TRACK 13 AUDIO
    TITLE "0:"
    INDEX 01 00:20:42
  TRACK 14 AUDIO
    TITLE "3:cjc172_4781"
    INDEX 01 00:21:12
  TRACK 15 AUDIO
    TITLE "0:"
    INDEX 01 00:22:31
  TRACK 16 AUDIO
    TITLE "4:cjc172_4782"
    INDEX 01 00:22:41
  TRACK 17 AUDIO
    TITLE "0:"
    INDEX 01 00:24:64
  TRACK 18 AUDIO
    TITLE "5:cjc172_4783"
    INDEX 01 00:24:70
  TRACK 19 AUDIO
    TITLE "0:"
    INDEX 01 00:31:62
  TRACK 20 AUDIO
    TITLE "3:cjc172_4784"
    INDEX 01 00:32:32
  TRACK 21 AUDIO
    TITLE "0:"
    INDEX 01 00:33:31
  TRACK 22 AUDIO
    TITLE "4:cjc172_4785"
    INDEX 01 00:33:39
  TRACK 23 AUDIO
    TITLE "0:"
    INDEX 01 00:37:72
  TRACK 24 AUDIO
    TITLE "5:cjc172_4786"
    INDEX 01 00:38:03
  TRACK 25 AUDIO
    TITLE "0:"
    INDEX 01 00:43:30
  TRACK 26 AUDIO
    TITLE "3:cjc172_4787"
    INDEX 01 00:44:00
  TRACK 27 AUDIO
    TITLE "0:"
    INDEX 01 00:45:19
  TRACK 28 AUDIO
    TITLE "4:cjc172_4788"
    INDEX 01 00:45:31
  TRACK 29 AUDIO
    TITLE "0:"
    INDEX 01 00:46:44
  TRACK 30 AUDIO
    TITLE "5:cjc172_4789"
    INDEX 01 00:46:50
  TRACK 31 AUDIO
    TITLE "0:"
    INDEX 01 00:53:07
  TRACK 32 AUDIO
    TITLE "3:cjc172_4790"
    INDEX 01 00:53:57
  TRACK 33 AUDIO
    TITLE "0:"
    INDEX 01 00:55:07
  TRACK 34 AUDIO
    TITLE "4:cjc172_4791"
    INDEX 01 00:55:13
  TRACK 35 AUDIO
    TITLE "0:"
    INDEX 01 00:58:08
  TRACK 36 AUDIO
    TITLE "5:cjc172_4792"
    INDEX 01 00:58:14
  TRACK 37 AUDIO
    TITLE "0:"
    INDEX 01 01:03:56
  TRACK 38 AUDIO
    TITLE "3:cjc172_4793"
    INDEX 01 01:04:26
  TRACK 39 AUDIO
    TITLE "0:"
    INDEX 01 01:05:37
  TRACK 40 AUDIO
    TITLE "4:cjc172_4794"
    INDEX 01 01:05:43
  TRACK 41 AUDIO
    TITLE "0:"
    INDEX 01 01:07:52
  TRACK 42 AUDIO
    TITLE "5:cjc172_4795"
    INDEX 01 01:07:58
  TRACK 43 AUDIO
    TITLE "0:"
    INDEX 01 01:14:28
  TRACK 44 AUDIO
    TITLE "3:cjc172_4796"
    INDEX 01 01:14:71
  TRACK 45 AUDIO
    TITLE "0:"
    INDEX 01 01:16:04
  TRACK 46 AUDIO
    TITLE "4:cjc172_4797"
    INDEX 01 01:16:10
  TRACK 47 AUDIO
    TITLE "0:"
    INDEX 01 01:18:38
  TRACK 48 AUDIO
    TITLE "5:cjc172_4798"
    INDEX 01 01:18:44
  TRACK 49 AUDIO
    TITLE "0:"
    INDEX 01 01:24:40
  TRACK 50 AUDIO
    TITLE "3:cjc172_4799"
    INDEX 01 01:25:12
  TRACK 51 AUDIO
    TITLE "0:"
    INDEX 01 01:26:10
  TRACK 52 AUDIO
    TITLE "4:cjc172_4800"
    INDEX 01 01:26:18
  TRACK 53 AUDIO
    TITLE "0:"
    INDEX 01 01:27:27
  TRACK 54 AUDIO
    TITLE "5:cjc172_4801"
    INDEX 01 01:27:35
  TRACK 55 AUDIO
    TITLE "0:"
    INDEX 01 01:32:69
  TRACK 56 AUDIO
    TITLE "3:cjc172_4802"
    INDEX 01 01:33:41
  TRACK 57 AUDIO
    TITLE "0:"
    INDEX 01 01:34:56
  TRACK 58 AUDIO
    TITLE "4:cjc172_4803"
    INDEX 01 01:34:64
  TRACK 59 AUDIO
    TITLE "0:"
    INDEX 01 01:37:22
  TRACK 60 AUDIO
    TITLE "5:cjc172_4804"
    INDEX 01 01:37:27
  TRACK 61 AUDIO
    TITLE "0:"
    INDEX 01 01:43:28
